# xmcd
#
# Track frame offsets: 
#        150
#        13170
#        18991
#        32995
#        44787
#        55218
#        68734
#        99001
#        111480
#        124901
#        137097
#        150689
#
# Disc length: 2263 seconds
#
# Revision: 0
# Processed by: cddbd v1.5.1PL0 Copyright (c) Steve Scherf et al.
# Submitted via: ExactAudioCopy v0.95a5
#
DISCID=a608d50c
DTITLE=Various Artist - The Blues came from Texas!
DYEAR=2003
DGENRE=Blues
TTITLE0=Johnny Copeland-Down on Bended Knees
TTITLE1=T-Bone Wallker-Baby Please Don't Go
TTITLE2=Jonny Winter-Ease My Pain
TTITLE3=Lightnin' Hopkins-Ease My Pain
TTITLE4=Albert Collins-The Freeze
TTITLE5=Clarence "Gatemouth" Brown-It's Alright
TTITLE6=Big Mama Thronton-All Right Baby
TTITLE7=Zuzu Bollin-Why Don't You Eat Where You Slept Last Night?
TTITLE8=Blind Lemon Jefferson-Black Snake Moan
TTITLE9=Smokey Hogg-Worried Blues
TTITLE10=Clarence Green-Walking the Baby
TTITLE11=Johnny Copeland-Working Man Blues
EXTD=
EXTT0=
EXTT1=
EXTT2=
EXTT3=
EXTT4=
EXTT5=
EXTT6=
EXTT7=
EXTT8=
EXTT9=
EXTT10=
EXTT11=
PLAYORDER=
